<svg width="1200" height="563" viewBox="0 0 1200 563" fill="none" xmlns="http://www.w3.org/2000/svg">
<path d="M454.506 385.857H248.947V385.913H224.969V385.731H179.893V339.098H157.411V253.984H196.283V299.061H226.465L226.466 177.087H454.506V385.857Z" fill="url(#paint0_linear_1697_6326)"/>
<g filter="url(#filter0_d_1697_6326)">
<rect x="382.257" y="216.923" width="27.7803" height="60.1906" rx="4.25535" fill="black"/>
</g>
<g filter="url(#filter1_d_1697_6326)">
<rect x="324.381" y="216.923" width="27.7803" height="60.1906" rx="4.25535" fill="black"/>
</g>
<path d="M973.37 360.328V324.7H1011.67V360.328H973.37Z" fill="black"/>
<path d="M932.293 360.327C924.574 360.327 918.042 359.437 912.698 357.655C907.502 355.874 903.568 352.46 900.896 347.412C898.224 342.216 896.888 334.794 896.888 325.145V275.933H877.96V249.88H896.888V219.596H928.063V249.88H955.229V275.933H928.063V321.359C928.063 324.773 928.434 327.371 929.176 329.153C929.918 330.934 931.254 332.196 933.184 332.938C935.262 333.532 938.009 333.829 941.423 333.829H954.561V360.327H932.293Z" fill="black"/>
<path d="M825.858 360.328V236.965C825.858 226.128 827.045 218.112 829.421 212.916C831.944 207.572 835.952 204.083 841.445 202.45C847.086 200.817 854.509 200.001 863.713 200.001H877.741V226.499H869.948C864.752 226.499 861.263 227.316 859.482 228.949C857.849 230.582 857.032 233.848 857.032 238.747V360.328H825.858ZM810.938 275.933V249.88H880.349V275.933H810.938Z" fill="black"/>
<path d="M777.111 360.327V249.88H808.285V360.327H777.111ZM778.447 232.289V203.341H807.395V232.289H778.447Z" fill="black"/>
<path d="M657.014 360.328V200.001H688.188V266.136C691.751 260.346 696.65 255.744 702.885 252.33C709.268 248.915 716.542 247.208 724.707 247.208C738.513 247.208 749.127 251.662 756.55 260.569C763.972 269.327 767.684 282.02 767.684 298.646V360.328H736.732V301.541C736.732 292.486 734.95 285.583 731.387 280.832C727.825 275.933 722.109 273.484 714.241 273.484C706.67 273.484 700.435 276.156 695.537 281.5C690.638 286.696 688.188 293.97 688.188 303.323V360.328H657.014Z" fill="black"/>
<path d="M589.226 363C582.101 363 574.975 362.035 567.849 360.105C560.724 358.027 554.118 354.835 548.031 350.53C542.093 346.076 537.12 340.361 533.112 333.384C529.104 326.258 526.654 317.722 525.764 307.776H554.266C555.602 315.347 558.126 321.211 561.837 325.367C565.697 329.376 570.15 332.196 575.198 333.829C580.245 335.462 585.144 336.279 589.894 336.279C595.387 336.279 600.212 335.388 604.368 333.606C608.673 331.825 612.014 329.376 614.389 326.258C616.912 323.141 618.174 319.652 618.174 315.792C618.174 311.487 616.987 307.628 614.611 304.213C612.236 300.799 606.966 298.349 598.801 296.865L573.639 292.189C560.427 289.665 550.184 284.469 542.91 276.601C535.636 268.585 531.999 259.158 531.999 248.322C531.999 238.524 534.448 230.211 539.347 223.382C544.246 216.405 550.852 211.06 559.165 207.349C567.478 203.638 576.682 201.782 586.777 201.782C597.317 201.782 606.744 203.564 615.057 207.126C623.518 210.689 630.347 216.256 635.543 223.827C640.887 231.25 644.079 240.899 645.118 252.775H616.17C615.131 246.095 613.127 241.047 610.158 237.633C607.189 234.07 603.7 231.621 599.692 230.285C595.684 228.949 591.676 228.281 587.668 228.281C583.956 228.281 579.948 228.874 575.643 230.062C571.486 231.25 567.924 233.254 564.955 236.074C562.134 238.895 560.724 242.829 560.724 247.876C560.724 252.033 562.208 255.744 565.177 259.01C568.295 262.276 573.565 264.577 580.987 265.913L604.146 270.144C617.358 272.519 627.824 277.195 635.543 284.172C643.262 291.001 647.122 301.244 647.122 314.902C647.122 322.621 645.415 329.45 642.001 335.388C638.735 341.326 634.281 346.373 628.64 350.53C623.147 354.538 616.987 357.655 610.158 359.882C603.329 361.96 596.352 363 589.226 363Z" fill="black"/>
<defs>
<filter id="filter0_d_1697_6326" x="381.406" y="216.923" width="29.4824" height="61.8926" filterUnits="userSpaceOnUse" color-interpolation-filters="sRGB">
<feFlood flood-opacity="0" result="BackgroundImageFix"/>
<feColorMatrix in="SourceAlpha" type="matrix" values="0 0 0 0 0 0 0 0 0 0 0 0 0 0 0 0 0 0 127 0" result="hardAlpha"/>
<feOffset dy="0.851071"/>
<feGaussianBlur stdDeviation="0.425535"/>
<feComposite in2="hardAlpha" operator="out"/>
<feColorMatrix type="matrix" values="0 0 0 0 0 0 0 0 0 0 0 0 0 0 0 0 0 0 0.25 0"/>
<feBlend mode="normal" in2="BackgroundImageFix" result="effect1_dropShadow_1697_6326"/>
<feBlend mode="normal" in="SourceGraphic" in2="effect1_dropShadow_1697_6326" result="shape"/>
</filter>
<filter id="filter1_d_1697_6326" x="323.53" y="216.923" width="29.4824" height="61.8926" filterUnits="userSpaceOnUse" color-interpolation-filters="sRGB">
<feFlood flood-opacity="0" result="BackgroundImageFix"/>
<feColorMatrix in="SourceAlpha" type="matrix" values="0 0 0 0 0 0 0 0 0 0 0 0 0 0 0 0 0 0 127 0" result="hardAlpha"/>
<feOffset dy="0.851071"/>
<feGaussianBlur stdDeviation="0.425535"/>
<feComposite in2="hardAlpha" operator="out"/>
<feColorMatrix type="matrix" values="0 0 0 0 0 0 0 0 0 0 0 0 0 0 0 0 0 0 0.25 0"/>
<feBlend mode="normal" in2="BackgroundImageFix" result="effect1_dropShadow_1697_6326"/>
<feBlend mode="normal" in="SourceGraphic" in2="effect1_dropShadow_1697_6326" result="shape"/>
</filter>
<linearGradient id="paint0_linear_1697_6326" x1="305.958" y1="177.087" x2="305.958" y2="385.913" gradientUnits="userSpaceOnUse">
<stop stop-color="#75BAFF" stop-opacity="0.54"/>
<stop offset="1" stop-color="#479AFF" stop-opacity="0.72"/>
</linearGradient>
</defs>
</svg>
